<svg xmlns="http://www.w3.org/2000/svg" viewBox="0 0 354.72 637.67"><defs><style>.cls-1{fill:#66a8d6;}.cls-2{fill:#a1eceb;}.cls-3{fill:#648dba;}.cls-4{fill:#77bdd6;}.cls-5{fill:#84bed2;}.cls-6{fill:#759ac5;}.cls-7{fill:#ca7eb1;}.cls-8{fill:#ca94c1;}.cls-9{fill:#ef9db8;}.cls-10{fill:#fbfcfd;}.cls-11{fill:#8abee0;}.cls-12{fill:#c2f3f1;}.cls-13{fill:#9de4e8;}.cls-14{fill:#d9b1d2;}.cls-15{fill:#eaf7fb;}</style></defs><g id="Layer_2" data-name="Layer 2"><g id="Layer_1-2" data-name="Layer 1"><path class="cls-1" d="M313.25,270.48a136.56,136.56,0,0,1,28.47,45.78,160.3,160.3,0,0,1,10.71,55.16c.22,14,2.26,27.93,2.29,41.91,0,11.34-.15,22.89-4.17,33.84-.92,1.19-1.93,2.32-2.73,3.58a134.62,134.62,0,0,1-29.88,33c-24.7,19.75-52.76,29.22-84.58,27.9a123.48,123.48,0,0,1-59.88-18c-7.44-4.51-14.86-9.15-20.61-15.9a139.88,139.88,0,0,0,19.84-.83c8.38-.77,15.46-6.72,16.52-13.73,1.44-9.61-7-18.24-18.27-18.29a127.85,127.85,0,0,0-15.77.92c-10.18,1.23-16,7.16-17,16.8-2.59-1.28-3.06-4.92-6.2-5.58-1.75-3.06-3-6.42-5.42-9.06-.25-.28-.5-.57-.76-.85l-.94-1a9.4,9.4,0,0,0-1.69-4.6c-7.64-12.82-12.32-26.86-15.51-41.27-5.09-23-4.28-46.63-5.51-70,1,.34,2,.62,3,1a170.18,170.18,0,0,0,127.76,2c20.58-8,39.21-19.13,55.23-34.5A227.59,227.59,0,0,0,313.25,270.48ZM239.48,495.11a37.34,37.34,0,0,0,24-9.79c12.51-11.19,13.3-29.14,1.86-41.26-11.07-11.71-29.94-14.8-44.21-7.24C201,447.48,197,470,212.64,485.39,219.52,492.15,228.21,495,239.48,495.11ZM122.15,405.54c0,1.21-.1,2.42,0,3.62.92,10.08,8,18.3,17.39,20.09,8.26,1.59,17.25-3.31,21.84-12.06a27.51,27.51,0,0,0,2.2-21.06c-3.38-11.68-12.92-17.27-24.78-14.65C129.11,383.62,122.08,393.71,122.15,405.54Zm68,17c10.66-.06,23.34-9.44,23.25-17.21-.14-12-12.35-24.93-23.47-24.84-10.82.09-20.48,9.88-19.59,21.23C171.63,418.14,176.81,422.3,190.15,422.55Zm130.42-59.64c0,7,.06,12.31,0,17.6-.06,4,.32,7.73,5.27,8.58,4.12.71,7.29-1.77,8.61-6.8a21.87,21.87,0,0,0,.6-5.36c.07-8,.13-16,0-24-.21-15-3.42-28.93-13.89-40.48-3.72-4.1-8.3-5.21-11.8-2.12s-3.22,8.58.51,12.36a36.46,36.46,0,0,1,9.85,18.95C321.27,349.3,320.16,357,320.57,362.91Z"/><path class="cls-2" d="M341.41,149.91a8.42,8.42,0,0,0,0,.87c0,12.65.28,25.27-1.67,37.88a163.16,163.16,0,0,1-31.9,75.4c-2.22-1.77-4.51-3.48-6.66-5.35a128.88,128.88,0,0,0-47.74-26.39c.32-1.55,1.68-2,2.82-2.72A125.39,125.39,0,0,0,287.12,202c20.66-25.65,29.61-54.92,26.21-87.7C310,81.65,295.54,54.47,270.09,34,234.53,5.43,194-1.79,150.32,10.3A121.37,121.37,0,0,0,86.5,52.67c-22.39,28.24-31.42,60.18-25,95.78,7.14,39.81,29.6,68.52,65.28,87.2,7.52,3.94,15.57,6.45,23.45,9.43-.23,1.55-1.52,2.19-2.62,2.94a137.76,137.76,0,0,0-36.18,35.51c-5.21,7.53-10.35,15.15-12.88,24.14-2.08.06-3.8-1-5.46-2-27.48-16.74-48.75-39.35-63-68.2C14.71,206.32,9.36,173.23,15.21,139c9.26-54.13,38.2-94.54,86.86-120.45,6.23-3.32,12.75-6.09,19.15-9.11l0,0,1.92-.9C129.54,7,136,5.43,142.4,3.85,152,1.5,161.65.68,171.48.2A154.34,154.34,0,0,1,251,17.39C297.9,41.6,326.86,80.07,338.4,131.62c1,4.25,1.46,8.61,2.16,12.92C340.67,146.36,340.11,148.28,341.41,149.91Z"/><path class="cls-3" d="M152.87,477.77c5.75,6.75,13.17,11.39,20.61,15.9a123.48,123.48,0,0,0,59.88,18c31.82,1.32,59.88-8.15,84.58-27.9a134.62,134.62,0,0,0,29.88-33c.8-1.26,1.81-2.39,2.73-3.58.05,5.31-2.84,10-3,15.29a3.84,3.84,0,0,0-1.42,2.94A157.75,157.75,0,0,1,316,516.08a92.62,92.62,0,0,0-10.33,10.35c-4.6,3.41-9.18,6.84-13.81,10.22a4.41,4.41,0,0,0-2.19,3.2c-2.59,22.57-3.17,45.06,2.2,67.37.17.73.44,1.44.67,2.16.71,5,1.88,10.07-.93,14.92-6.09,10.55-24.2,10.84-31.75.64-3.89-5.24-3.88-11.56-5.62-17.4-2.94-16.19-4.68-32.44-2.73-48.9.45-3.75-1.66-3.93-4.45-3.33a120.29,120.29,0,0,1-40.84,1.61c-3.36-.43-4.63.69-4.53,4.13.21,7.22-.27,14.49.28,21.68.64,8.35.91,16.8,3.45,24.9,0,.9,0,1.81,0,2.7.86,13.32-11.8,19.3-22.52,15.84-8-2.6-11.19-9-12.1-16.83-2.07-14.63-3.77-29.28-3.33-44.09.15-4.82.38-9.64.85-14.43.33-3.39-1.08-5.07-4-6.59A138.5,138.5,0,0,1,112.57,498c-.84-1.24-1.51-2.6-2.25-3.91,18.25-6.81,25.65-19.44,21.69-37.07,3.14.66,3.61,4.3,6.2,5.57C139.23,471.42,145.14,475.47,152.87,477.77Z"/><path class="cls-4" d="M254.26,607.54c1.74,5.84,1.73,12.16,5.62,17.4,7.55,10.2,25.66,9.91,31.75-.64,2.81-4.85,1.64-9.88.93-14.92,18.42.59,36.62,2.68,54.39,7.8,2.91.84,6.55,1.82,6.71,5.18.18,3.67-3.8,4.39-6.54,5.16A222.78,222.78,0,0,1,312.53,634c-14.8,1.75-29.68,2.35-44.53,3.36-8.86.61-17.8.19-26.71.2-13.14,0-26.29.37-39.41-.1-16.22-.58-32.43-1.6-48.61-3.27a245.78,245.78,0,0,1-33.81-5.7,31,31,0,0,1-5.55-1.88c-1.88-.84-4.35-1.57-4.19-4.16.15-2.32,2.27-3.45,4.23-4.31,7.83-3.41,16.29-4.35,24.57-5.78a207.08,207.08,0,0,1,32.33-3c.91,7.85,4.07,14.23,12.1,16.83,10.72,3.46,23.38-2.52,22.52-15.84-.06-.89,0-1.8,0-2.7C221.72,606.71,238,606,254.26,607.54Z"/><path class="cls-5" d="M121.22,9.4c-6.4,3-12.92,5.79-19.15,9.11C53.41,44.42,24.47,84.83,15.21,139c-5.85,34.27-.5,67.36,14.86,98.54,14.23,28.85,35.5,51.46,63,68.2,1.66,1,3.38,2,5.46,2,0,.3,0,.6-.05.9-1.59.83-2,2.42-2.64,3.93-1.51,3.83-3,7.64-4.57,11.46C84,321.6,77.91,317,71.83,312.68a168.19,168.19,0,0,1-53.8-63,175.25,175.25,0,0,1-17.54-65c-2.37-31.09,4-60.29,17.42-88C29,73.8,44.83,54.56,64.64,38.63A173.3,173.3,0,0,1,114.21,11C116.47,10.19,118.72,9.24,121.22,9.4Z"/><path class="cls-6" d="M313.25,270.48a227.59,227.59,0,0,1-25.1,28.36c-16,15.37-34.65,26.48-55.23,34.5a170.18,170.18,0,0,1-127.76-2c-1-.41-2-.69-3-1l0-19A24.09,24.09,0,0,1,106,312.4c28.24,13.87,58.05,18.65,89.2,15.26,37.43-4.06,69.57-19.5,96.82-45.39,5.69-5.4,10.35-11.72,15.81-17.33l5.4,4.61Z"/><path class="cls-3" d="M102.15,311.23l0,19c1.23,23.39.42,47,5.51,70,3.19,14.41,7.87,28.45,15.51,41.27a9.4,9.4,0,0,1,1.69,4.6c-10.4-9.11-22.28-11.55-35.51-7.84-2.18-5.28-2-11-2.37-16.46-1-17-1.46-34-2.14-51.05-.54-13.69,1.55-27.05,5-40.25.57-2.17.93-4.41,1.38-6.61,1.52-3.82,3.06-7.63,4.57-11.46.59-1.51,1.05-3.1,2.64-3.93Z"/><path class="cls-7" d="M89.38,438.33c13.23-3.71,25.11-1.27,35.51,7.84l.94,1c.26.28.51.57.76.85,2.43,2.64,3.67,6,5.42,9.06,4,17.63-3.44,30.26-21.69,37.07C99.33,477,91.88,458.61,89.38,438.33Z"/><path class="cls-5" d="M313.22,269.55l-5.4-4.61c0-.29,0-.58,0-.88a163.16,163.16,0,0,0,31.9-75.4c1.95-12.61,1.65-25.23,1.67-37.88,1.57,4.14,1.51,8.57,1.71,12.84,1.52,32.36-5.2,62.93-20.78,91.42C319.59,260,317.15,265.28,313.22,269.55Z"/><path class="cls-8" d="M305.69,526.43A92.62,92.62,0,0,1,316,516.08a2.43,2.43,0,0,0,2.1.37c10.65-1.64,19.34-6.71,25.2-15.69,7.25-11.12,9-23,2.8-35.36a3.84,3.84,0,0,1,1.42-2.94c8,15.44,7.34,30.68-2.26,45C336,521.38,322.37,527.37,305.69,526.43Z"/><path class="cls-5" d="M341.41,149.91c-1.3-1.63-.74-3.55-.85-5.37C341.89,146.17,341.21,148.11,341.41,149.91Z"/><path class="cls-5" d="M123.1,8.52l-1.92.9Z"/><path class="cls-9" d="M239.48,495.11c-11.27-.16-20-3-26.84-9.72C197,470,201,447.48,221.09,436.82c14.27-7.56,33.14-4.47,44.21,7.24,11.44,12.12,10.65,30.07-1.86,41.26A37.34,37.34,0,0,1,239.48,495.11Z"/><path class="cls-10" d="M122.15,405.54c-.07-11.83,7-21.92,16.66-24.06,11.86-2.62,21.4,3,24.78,14.65a27.51,27.51,0,0,1-2.2,21.06c-4.59,8.75-13.58,13.65-21.84,12.06-9.35-1.79-16.47-10-17.39-20.09C122.05,408,122.15,406.75,122.15,405.54Zm34.06.82c-.09-4-4-7.7-8.07-7.67s-7.78,4.1-7.65,8.07a8.33,8.33,0,0,0,8.08,7.64A8.17,8.17,0,0,0,156.21,406.36Z"/><path class="cls-10" d="M190.15,422.55c-13.34-.25-18.52-4.41-19.81-20.82-.89-11.35,8.77-21.14,19.59-21.23,11.12-.09,23.33,12.83,23.47,24.84C213.49,413.11,200.81,422.49,190.15,422.55Zm1.61-24.38a7.17,7.17,0,0,0-7.35,7.38,7.75,7.75,0,0,0,15.5.54C200,402,196.18,398.24,191.76,398.17Z"/><path class="cls-11" d="M320.57,362.91c-.41-5.92.7-13.61-.85-21.27a36.46,36.46,0,0,0-9.85-18.95c-3.73-3.78-3.93-9.33-.51-12.36s8.08-2,11.8,2.12c10.47,11.55,13.68,25.49,13.89,40.48.11,8,.05,16,0,24a21.87,21.87,0,0,1-.6,5.36c-1.32,5-4.49,7.51-8.61,6.8-4.95-.85-5.33-4.55-5.27-8.58C320.63,375.22,320.57,369.94,320.57,362.91Z"/><path class="cls-9" d="M152.87,477.77c-7.73-2.3-13.64-6.35-14.66-15.14,1-9.63,6.8-15.56,17-16.79a127.85,127.85,0,0,1,15.77-.92c11.24.05,19.71,8.68,18.27,18.29-1.06,7-8.14,13-16.52,13.73A139.88,139.88,0,0,1,152.87,477.77Zm8.37-22.44a18.16,18.16,0,0,0-8.06,1.27,5.68,5.68,0,0,0-3.88,5.56c0,2.57,1.72,4.17,4,4.92a21.82,21.82,0,0,0,15.87-.91,5.17,5.17,0,0,0,3.41-5.38c-.28-2.4-1.9-4-4.28-4.77A20.23,20.23,0,0,0,161.24,455.33Z"/><path class="cls-3" d="M126.59,448c-.25-.28-.5-.57-.76-.85C126.09,447.43,126.34,447.72,126.59,448Z"/><path class="cls-12" d="M150.19,245.08c-7.88-3-15.93-5.49-23.45-9.43C91.06,217,68.6,188.26,61.46,148.45c-6.38-35.6,2.65-67.54,25-95.78A121.37,121.37,0,0,1,150.32,10.3C194-1.79,234.53,5.43,270.09,34c25.45,20.46,39.87,47.64,43.24,80.25,3.4,32.78-5.55,62.05-26.21,87.7a125.39,125.39,0,0,1-30.87,27.64c-1.14.71-2.5,1.17-2.82,2.72-3.32.16-5.87,2.22-8.7,3.56a141.15,141.15,0,0,1-58.4,13.71C174.06,249.79,162.15,247.27,150.19,245.08ZM191.87,32a35.59,35.59,0,0,0-14.31,2c-19,6.8-23.43,26-9.25,40.23,11.8,11.87,33.32,15.72,48.31,8.27,13.81-6.86,18.84-20.74,9.54-33.84C217.76,36.79,205.84,32.22,191.87,32Z"/><path class="cls-13" d="M150.19,245.08c12,2.19,23.87,4.71,36.14,4.51a141.15,141.15,0,0,0,58.4-13.71c2.83-1.34,5.38-3.4,8.7-3.56a128.88,128.88,0,0,1,47.74,26.39c2.15,1.87,4.44,3.58,6.66,5.35,0,.3,0,.59,0,.88-5.46,5.61-10.12,11.93-15.81,17.33-27.25,25.89-59.39,41.33-96.82,45.39-31.15,3.39-61-1.39-89.2-15.26a24.09,24.09,0,0,0-3.84-1.17l-3.69-2.66c0-.3,0-.6.05-.9,2.53-9,7.67-16.61,12.88-24.14A137.76,137.76,0,0,1,147.57,248C148.67,247.27,150,246.63,150.19,245.08Z"/><path class="cls-14" d="M346.12,465.4c6.18,12.35,4.45,24.24-2.8,35.36-5.86,9-14.55,14-25.2,15.69a2.43,2.43,0,0,1-2.1-.37A157.75,157.75,0,0,0,346.12,465.4Z"/><path class="cls-1" d="M156.21,406.36a8.17,8.17,0,0,1-7.64,8,8.33,8.33,0,0,1-8.08-7.64c-.13-4,3.73-8,7.65-8.07S156.12,402.4,156.21,406.36Z"/><path class="cls-1" d="M191.76,398.17c4.42.07,8.28,3.82,8.15,7.92a7.75,7.75,0,0,1-15.5-.54A7.17,7.17,0,0,1,191.76,398.17Z"/><path class="cls-7" d="M161.24,455.33a20.23,20.23,0,0,1,7.07.69c2.38.81,4,2.37,4.28,4.77a5.17,5.17,0,0,1-3.41,5.38,21.82,21.82,0,0,1-15.87.91c-2.29-.75-4-2.35-4-4.92a5.68,5.68,0,0,1,3.88-5.56A18.16,18.16,0,0,1,161.24,455.33Z"/><path class="cls-15" d="M191.87,32c14,.24,25.89,4.81,34.29,16.64,9.3,13.1,4.27,27-9.54,33.84-15,7.45-36.51,3.6-48.31-8.27-14.18-14.27-9.76-33.43,9.25-40.23A35.59,35.59,0,0,1,191.87,32Z"/></g></g></svg>