<svg xmlns="http://www.w3.org/2000/svg" viewBox="0 0 595.28 595.28"><defs><style>.cls-1{fill:#525d88;}.cls-2{fill:#eff1eb;}.cls-3{fill:#7fd1e4;}.cls-4{fill:#ed91ae;}.cls-5{fill:#b3e1e9;}</style></defs><g id="background"><rect class="cls-1" width="595.28" height="595.28"/></g><g id="logo"><path class="cls-2" d="M162.55,318.78v62.46c0,2.51-.14,5-1.73,7.14a9.81,9.81,0,0,1-11.19,3.3c-3.93-1.38-6.06-4.52-6.06-9.05q0-23.24,0-46.47c0-.85.48-2.09-.55-2.47s-1.47.87-2.08,1.47c-11.32,11.33-25,16-40.73,13.48-19.44-3.11-31.64-15-37.72-33.24-4.41-13.24-4.15-26.66,1.73-39.47C72.4,258,86.71,248,106.24,246.2c15.59-1.45,31.28-.43,46.93-.45,5.87,0,9.36,4.05,9.37,10.08Q162.58,287.3,162.55,318.78Zm-51.44,13.69c8.39,0,15.9-2.5,22.07-8.34,8.59-8.13,11.4-18.24,10.76-29.87-.8-14.25-11-28.18-26.4-31-10.62-1.93-20.09.54-28,7.72-9,8.14-12.21,18.6-11.3,30.62A33.19,33.19,0,0,0,111.11,332.47Z"/><path class="cls-3" d="M288.8,276.39q0-29.37,0-58.73a50.37,50.37,0,0,1,.37-6.72c.58-4.28,3.44-7.36,7.48-7.83,5.17-.6,9.16,1.59,10.67,5.84a18.33,18.33,0,0,1,.88,6.15q0,21.61,0,43.23c0,.59,0,1.17,0,1.75s-.1,1.1.49,1.29.87-.35,1.19-.7a46.05,46.05,0,0,1,27.55-14.37c12.23-1.54,23.48.79,33.54,8.21a49.3,49.3,0,0,1,19.3,30c3,13.52,2,26.75-5,39-8.15,14.2-20.4,22.7-36.72,25.22a71.69,71.69,0,0,1-10.94.69c-12.83,0-25.67-.15-38.5.06-5.07.09-10-3.33-10.06-8.82,0-1.33-.19-2.66-.19-4Q288.8,306.5,288.8,276.39Zm84.64,21.3c.46-15.85-10.62-31.6-27.21-34.45-11.8-2-22.13,1.11-30.06,10.08-9.48,10.73-11.22,23.45-6.83,36.73,7,21,28,26.79,44.2,19.62C367.18,323.62,372.78,312,373.44,297.69Z"/><path class="cls-4" d="M484.28,349.32c-20-.22-35.8-8.4-45.63-26.75A45.59,45.59,0,0,1,433.58,306c-1.19-10.48-.66-20.84,3.77-30.6,7.95-17.53,21.89-27,40.81-29.13,16.06-1.83,30.41,2.31,42.32,13.53,8.84,8.34,13.65,18.81,14.94,30.8,1.23,11.47-.06,22.68-5.73,32.95-7.81,14.16-19.79,22.57-35.84,25.11C490.78,349.1,487.71,349.05,484.28,349.32Zm.32-86.66c-9.64,0-18.07,3-24.42,10.46-9.46,11-11.1,23.86-6.8,37.27,3.74,11.64,12.05,19.14,24.19,21.43,12.48,2.36,23.53-.73,31.94-10.73,7-8.34,8.8-18.18,7.7-28.8C515.42,275,501.9,262.68,484.6,262.66Z"/><path class="cls-5" d="M235.26,297.83c0,13.65,0,27.3,0,40.95,0,6-3.65,9.71-9.33,9.77s-9.64-3.57-9.65-9.4q0-41.58,0-83.16c0-5.75,3.74-9.39,9.41-9.42s9.55,3.73,9.57,9.55C235.29,270,235.26,283.93,235.26,297.83Z"/></g></svg>