<svg id="Layer_1" data-name="Layer 1" xmlns="http://www.w3.org/2000/svg" viewBox="0 0 476.32 189.19"><defs><style>.cls-1{fill:#eff0ea;}.cls-2{fill:#636d92;}.cls-3{fill:#ec90ad;}.cls-4{fill:#aaafbe;}</style></defs><path class="cls-1" d="M114.52,124.53q0,31.22,0,62.44a12.74,12.74,0,0,1-1.3,6.53c-2.12,3.65-6.73,5.28-11.13,4.07a8.79,8.79,0,0,1-6.56-8.92q0-23.49,0-47c0-.8.4-1.94-.39-2.32-1-.5-1.48.76-2.07,1.36-11.33,11.42-25,16.19-40.87,13.64-19.71-3.18-31.94-15.25-37.92-33.86-4.21-13.13-3.88-26.33,1.94-38.93,8.29-18,22.68-27.92,42.29-29.66,15.44-1.38,31-.37,46.44-.45,6,0,9.57,4,9.58,10.13Q114.55,93.07,114.52,124.53ZM63.19,138.21c8.29-.06,15.72-2.49,21.84-8.23,8.6-8.07,11.47-18.14,10.89-29.77C95.19,85.51,84.63,71.65,69.27,69c-10.41-1.83-19.76.59-27.59,7.57-9.13,8.13-12.39,18.64-11.5,30.75A33.18,33.18,0,0,0,63.19,138.21Z" transform="translate(-11.43 -8.77)"/><path class="cls-2" d="M240.78,82.31q0-30.73,0-61.46c0-2.56.08-5.15,1.36-7.51,2.07-3.83,5.48-4.86,9.49-4.5a8.43,8.43,0,0,1,7.56,5.63,17.43,17.43,0,0,1,1,6.38q0,22,0,44c0,.79-.43,1.92.37,2.3s1.28-.77,1.81-1.32a45.67,45.67,0,0,1,30.29-14c11-.75,20.93,1.74,29.87,8.18,10.78,7.76,17.28,18.35,20,31.21,2.49,12,1.74,23.9-3.73,35.09-6.75,13.83-17.6,23-32.52,27a60,60,0,0,1-16.3,1.89c-12.66-.09-25.33,0-38,0-7.7,0-11.12-3.34-11.15-11.09,0-11.33,0-22.66,0-34Zm84.62,21.21C326,87.74,314.87,71.79,298.11,69c-11.79-2-22.09,1.18-30,10.15-9.3,10.57-11.1,23-6.94,36.21C268,136.74,289.74,143,306.38,135,319.37,128.82,324.82,117.48,325.4,103.52Z" transform="translate(-11.43 -8.77)"/><path class="cls-3" d="M436.19,155c-11.58.05-22.25-2.89-31.54-10-11.8-9-18-21.12-19.34-35.75-.86-9.62-.1-19.16,4-28.1,8-17.62,21.92-27.12,40.94-29.28,15.09-1.71,28.82,1.87,40.43,11.9,11.12,9.61,16.43,22.08,17.05,36.68.5,11.87-1.78,23-8.58,32.95-9.48,13.77-22.78,20.72-39.43,21.41C438.51,154.93,437.35,155,436.19,155Zm2.59-86.62c-10.19,0-17.32,2-23.21,7.12-11.05,9.61-14.11,22.08-11.44,35.95,2.95,15.27,13.29,24.73,28.76,26.53,11.27,1.31,21.06-2.23,28.51-11.07,7-8.25,8.87-17.94,7.82-28.48C467.44,80.72,454.05,68.41,438.78,68.42Z" transform="translate(-11.43 -8.77)"/><path class="cls-4" d="M168.23,103.29c0-13.74,0-27.48,0-41.22,0-7.16,6-11.46,12.76-9.26,4,1.28,6.22,4.53,6.23,9.19q0,25.6,0,51.21c0,10.49,0,21,0,31.47,0,7.53-7,11.89-13.83,8.74-3.68-1.69-5.16-4.77-5.16-8.67Q168.22,124,168.23,103.29Z" transform="translate(-11.43 -8.77)"/></svg>