<svg xmlns="http://www.w3.org/2000/svg" viewBox="0 0 476.41 189.25"><defs><style>.cls-1{fill:#eff1eb;}.cls-2{fill:#7fd1e4;}.cls-3{fill:#ed91ae;}.cls-4{fill:#b3e1e9;}</style></defs><g id="Layer_2" data-name="Layer 2"><g id="logo"><path class="cls-1" d="M103.12,115.76v62.46c0,2.52-.14,5-1.74,7.14a9.76,9.76,0,0,1-11.18,3.3c-3.93-1.38-6.06-4.51-6.06-9,0-15.49,0-31,0-46.47,0-.85.47-2.08-.56-2.46s-1.46.86-2.07,1.47c-11.32,11.33-25,16-40.73,13.47-19.44-3.1-31.64-15-37.72-33.24C-1.38,99.15-1.12,85.73,4.76,72.92,13,55,27.28,45,46.81,43.18c15.59-1.45,31.28-.42,46.93-.44,5.87,0,9.36,4,9.37,10.08Q103.14,84.29,103.12,115.76Zm-51.44,13.7c8.39-.05,15.9-2.5,22.07-8.34,8.59-8.13,11.4-18.25,10.75-29.87-.79-14.26-11-28.18-26.4-31C47.49,58.32,38,60.8,30.08,68c-9,8.15-12.21,18.61-11.3,30.63A33.19,33.19,0,0,0,51.68,129.46Z"/><path class="cls-2" d="M229.37,73.38q0-29.37,0-58.73a48.75,48.75,0,0,1,.37-6.72c.58-4.29,3.44-7.37,7.48-7.83,5.17-.6,9.15,1.58,10.67,5.84a18,18,0,0,1,.87,6.15V55.32c0,.58,0,1.17,0,1.75s-.1,1.09.49,1.29.87-.35,1.19-.71a46.07,46.07,0,0,1,7.92-6.83A44.63,44.63,0,0,1,278,43.29c12.23-1.55,23.48.78,33.53,8.2a49.21,49.21,0,0,1,19.3,30c3,13.52,2,26.75-5,39-8.15,14.2-20.4,22.69-36.72,25.21a69.28,69.28,0,0,1-10.95.69c-12.83,0-25.66-.14-38.49.07-5.07.08-10-3.33-10.06-8.82,0-1.33-.19-2.66-.19-4Q229.37,103.5,229.37,73.38ZM314,94.67c.46-15.85-10.62-31.59-27.21-34.45-11.8-2-22.13,1.12-30.06,10.09C247.26,81,245.52,93.76,249.91,107c7,21,28,26.79,44.2,19.61C307.75,120.6,313.35,109,314,94.67Z"/><path class="cls-3" d="M424.85,146.3c-20-.21-35.8-8.39-45.64-26.74a46,46,0,0,1-5.07-16.63c-1.18-10.47-.65-20.84,3.78-30.59,7.95-17.53,21.89-27,40.81-29.14,16.06-1.82,30.41,2.32,42.32,13.54,8.84,8.33,13.65,18.81,14.94,30.8,1.23,11.47-.06,22.67-5.73,32.94q-11.73,21.26-35.84,25.12C431.35,146.08,428.28,146,424.85,146.3Zm.32-86.66c-9.64,0-18.07,3-24.43,10.47-9.45,11-11.1,23.86-6.79,37.27,3.74,11.64,12.05,19.14,24.19,21.43,12.47,2.36,23.53-.73,31.94-10.73,7-8.35,8.8-18.18,7.7-28.81C456,72,442.47,59.66,425.17,59.64Z"/><path class="cls-4" d="M175.83,94.81c0,13.66,0,27.31,0,41,0,6-3.65,9.71-9.33,9.76s-9.64-3.56-9.65-9.4q0-41.58,0-83.16c0-5.75,3.74-9.38,9.41-9.41s9.55,3.72,9.57,9.55C175.86,67,175.83,80.91,175.83,94.81Z"/></g></g></svg>